<svg width="68" height="57" viewBox="0 0 68 57" fill="none" xmlns="http://www.w3.org/2000/svg">
<path d="M0.5 0.5H67.5V56.5H0.5V0.5Z" fill="#A4A4A4" stroke="#645959"/>
<path d="M31.0195 23.6H35.7633V42.1625C35.7547 43.8641 35.3938 45.3293 34.6805 46.5582C33.9672 47.7785 32.9703 48.7195 31.6898 49.3812C30.418 50.0344 28.9355 50.3609 27.2426 50.3609C25.6957 50.3609 24.3035 50.0859 23.066 49.5359C21.8371 48.9773 20.8617 48.1523 20.1398 47.0609C19.418 45.9695 19.057 44.6117 19.057 42.9875H23.8137C23.8223 43.7008 23.977 44.3152 24.2777 44.8309C24.5871 45.3465 25.0125 45.7418 25.5539 46.0168C26.0953 46.2918 26.7184 46.4293 27.423 46.4293C28.1879 46.4293 28.8367 46.2703 29.3695 45.9523C29.9023 45.6258 30.3062 45.1445 30.5812 44.5086C30.8648 43.8727 31.0109 43.0906 31.0195 42.1625V23.6ZM55.299 30.8574C55.1787 29.7316 54.6717 28.8551 53.7779 28.2277C52.8928 27.6004 51.7412 27.2867 50.3232 27.2867C49.3264 27.2867 48.4713 27.4371 47.758 27.7379C47.0447 28.0387 46.499 28.4469 46.1209 28.9625C45.7428 29.4781 45.5494 30.0668 45.5408 30.7285C45.5408 31.2785 45.6654 31.7555 45.9146 32.1594C46.1725 32.5633 46.5205 32.907 46.9588 33.1906C47.3971 33.4656 47.8826 33.6977 48.4154 33.8867C48.9482 34.0758 49.4854 34.2348 50.0268 34.3637L52.5018 34.9824C53.4986 35.2145 54.4568 35.5281 55.3764 35.9234C56.3045 36.3187 57.1338 36.8172 57.8643 37.4188C58.6033 38.0203 59.1877 38.7465 59.6174 39.5973C60.0471 40.448 60.2619 41.4449 60.2619 42.5879C60.2619 44.1348 59.8666 45.4969 59.076 46.6742C58.2854 47.843 57.1424 48.7582 55.6471 49.4199C54.1604 50.073 52.36 50.3996 50.2459 50.3996C48.192 50.3996 46.4088 50.0816 44.8963 49.4457C43.3924 48.8098 42.215 47.8816 41.3643 46.6613C40.5221 45.441 40.0666 43.9543 39.9979 42.2012H44.7029C44.7717 43.1207 45.0553 43.8855 45.5537 44.4957C46.0521 45.1059 46.701 45.5613 47.5002 45.8621C48.308 46.1629 49.2104 46.3133 50.2072 46.3133C51.2471 46.3133 52.158 46.1586 52.94 45.8492C53.7307 45.5313 54.3494 45.093 54.7963 44.5344C55.2432 43.9672 55.4709 43.3055 55.4795 42.5492C55.4709 41.8617 55.2689 41.2945 54.8736 40.8477C54.4783 40.3922 53.924 40.0141 53.2107 39.7133C52.5061 39.4039 51.6811 39.1289 50.7357 38.8883L47.7322 38.1148C45.558 37.5563 43.8393 36.7098 42.576 35.5754C41.3213 34.4324 40.6939 32.9156 40.6939 31.025C40.6939 29.4695 41.115 28.1074 41.9572 26.9387C42.808 25.7699 43.9639 24.8633 45.4248 24.2187C46.8857 23.5656 48.54 23.2391 50.3877 23.2391C52.2611 23.2391 53.9025 23.5656 55.3119 24.2187C56.7299 24.8633 57.8428 25.7613 58.6506 26.9129C59.4584 28.0559 59.8752 29.3707 59.901 30.8574H55.299Z" fill="#2A1616"/>
</svg>
